<svg id="Capa_1" enable-background="new 0 0 512 512" height="512" viewBox="0 0 512 512" width="512" xmlns="http://www.w3.org/2000/svg"><g><path d="m479 15v482c0 8.28-6.72 15-15 15h-336c-8.28 0-15-6.72-15-15v-482c0-8.28 6.72-15 15-15h336c8.28 0 15 6.72 15 15z" fill="#af8663"/><path d="m479 15v482c0 8.28-6.72 15-15 15h-168v-512h168c8.28 0 15 6.72 15 15z" fill="#865240"/><path d="m143 0h-65c-24.853 0-45 20.147-45 45v422c0 24.853 20.147 45 45 45h65z" fill="#865240"/><path d="m407 224c0 25.55-16.62 61.09-50.82 108.64-24.2 33.64-48.01 60.26-49.02 61.38-5.94 6.631-16.369 6.642-22.32 0-1.01-1.12-24.82-27.74-49.02-61.38-34.2-47.55-50.82-83.09-50.82-108.64 0-61.21 49.79-111 111-111s111 49.79 111 111z" fill="#fff16b"/><path d="m407 224c0 25.55-16.62 61.09-50.82 108.64-24.2 33.64-48.01 60.26-49.02 61.38-2.84 3.17-6.9 4.98-11.16 4.98v-286c61.21 0 111 49.79 111 111z" fill="#ffb454"/><circle cx="296" cy="224" fill="#afea93" r="47"/><path d="m343 224c0 25.92-21.08 47-47 47v-94c25.92 0 47 21.08 47 47z" fill="#70be6b"/></g></svg>