<svg height="512pt" viewBox="-47 0 512 512" width="512pt" xmlns="http://www.w3.org/2000/svg"><path d="m408 441.1875h-398v-387.527344c0-23.625 19.222656-42.847656 42.847656-42.847656h355.152344zm0 0" fill="#fff"/><path d="m209 10.8125h199v430.375h-199zm0 0" fill="#f3eee9"/><path d="m418 452h-388l-30-407c0-24.8125 20.1875-45 45-45h373zm-388-30h358v-392h-343c-8.269531 0-15 6.730469-15 15zm0 0" fill="#00429b"/><path d="m209 30h179v392h-179v30h209v-452h-209zm0 0" fill="#002659"/><path d="m358 512h-313c-24.8125 0-45-20.1875-45-45v-422h30c0 8.269531 6.730469 15 15 15h313zm0 0" fill="#2864f0"/><path d="m179 60h179v452h-179zm0 0" fill="#0053bf"/><path d="m179 350c-51.832031 0-94-42.167969-94-94s42.167969-94 94-94 94 42.167969 94 94-42.167969 94-94 94zm0 0" fill="#ffd844"/><path d="m273 256c0-51.832031-42.167969-94-94-94v188c51.832031 0 94-42.167969 94-94zm0 0" fill="#ffcb00"/><path d="m179 151c-57.898438 0-105 47.101562-105 105s47.101562 105 105 105 105-47.101562 105-105-47.101562-105-105-105zm73.492188 90h-28.878907c-.949219-18.1875-3.644531-35.800781-8.230469-50.550781 18.8125 10.484375 32.679688 28.816406 37.109376 50.550781zm-88.058594 30h29.136718c-1.910156 32.550781-9.730468 52.488281-14.570312 58.640625-4.839844-6.152344-12.660156-26.089844-14.566406-58.640625zm0-30c1.90625-32.550781 9.726562-52.488281 14.566406-58.640625 4.839844 6.148437 12.660156 26.089844 14.566406 58.640625zm-21.816406-50.550781c-4.585938 14.753906-7.28125 32.363281-8.230469 50.550781h-28.878907c4.429688-21.734375 18.296876-40.066406 37.109376-50.550781zm-37.109376 80.550781h28.878907c.949219 18.1875 3.644531 35.800781 8.230469 50.550781-18.8125-10.484375-32.679688-28.816406-37.109376-50.550781zm109.875 50.550781c4.585938-14.753906 7.28125-32.363281 8.230469-50.550781h28.878907c-4.429688 21.734375-18.296876 40.066406-37.109376 50.550781zm0 0" fill="#ffee4a"/><path d="m107 391h144v30h-144zm0 0" fill="#99f9ff"/><path d="m193.566406 241h-14.566406v30h14.566406c-1.90625 32.550781-9.726562 52.488281-14.566406 58.640625v31.359375c57.898438 0 105-47.101562 105-105s-47.101562-105-105-105v31.359375c4.839844 6.152344 12.660156 26.089844 14.566406 58.640625zm58.925782 0h-28.878907c-.949219-18.1875-3.644531-35.800781-8.230469-50.550781 18.8125 10.484375 32.679688 28.816406 37.109376 50.550781zm-28.878907 30h28.878907c-4.429688 21.734375-18.296876 40.066406-37.105469 50.550781 4.582031-14.75 7.277343-32.363281 8.226562-50.550781zm0 0" fill="#ffd844"/><path d="m179 391h72v30h-72zm0 0" fill="#00e5ee"/></svg>