<svg id="Layer_1" height="512" viewBox="0 0 512 512" width="512" xmlns="http://www.w3.org/2000/svg" data-name="Layer 1"><path d="m419.17 357.69v84.62h-120.11v-46.24h-128.64v46.24h-35.28a42.3 42.3 0 0 1 -42.31-42.31q0-.87.03-1.74a42.317 42.317 0 0 1 42.28-40.57z" fill="#e48e66"/><path d="m266.64 101.68a98.961 98.961 0 1 0 109.44 101.89c.05-1.16.07-2.32.07-3.49a98.527 98.527 0 0 0 -9.15-41.6l20.39-27.27a35.531 35.531 0 0 0 7.25-23.59c-1.14-17.48-15.07-32.98-34.25-32.98s-33.12 15.5-34.25 32.98a32.59 32.59 0 0 0 .22 6.56 99.185 99.185 0 0 0 -59.72-12.5zm152.53-85.68v341.69h-265.41v-341.69z" fill="#f8ec7d"/><path d="m367 158.48-6.61 8.83-27-36.1c-.53-.73-1.04-1.47-1.51-2.23a36.812 36.812 0 0 1 -5.52-14.8 32.59 32.59 0 0 1 -.22-6.56c1.13-17.48 15.06-32.98 34.25-32.98s33.11 15.5 34.25 32.98a35.531 35.531 0 0 1 -7.25 23.59zm7.31-48.78a14.35 14.35 0 1 0 -14.35 14.35 14.289 14.289 0 0 0 14.35-14.35z" fill="#cc7350"/><path d="m376.15 200.08c0 1.17-.02 2.33-.07 3.49l-6.61.67c-.25.03-.5.05-.76.06l-1.89.08a9.224 9.224 0 0 0 -8.03 5.52l-.49 1.1a14.3 14.3 0 0 1 -13.1 8.56h-8.05a7.7 7.7 0 0 1 -7.66-6.94l-.33-3.22a9.118 9.118 0 0 0 -4.15-6.78v-.01a8.569 8.569 0 0 1 -3.92-7.2v-3.23a10.252 10.252 0 0 1 3.47-7.69l13.75-12.15a9.565 9.565 0 0 0 3.23-7.17 9.373 9.373 0 0 0 -.41-2.76 9.85 9.85 0 0 0 -8.22-6.92l-1.38-.17a10.71 10.71 0 0 1 -3.72-1.17 10.843 10.843 0 0 1 -3.06-2.42 7.806 7.806 0 0 1 -.91-9.01l8.04-13.74c.47.76.98 1.5 1.51 2.23l27 36.1 6.61-8.83a98.527 98.527 0 0 1 9.15 41.6z" fill="#e48e66"/><path d="m369.47 204.24 6.61-.67a98.962 98.962 0 1 1 -195.22-26.29l.35.09 6.68-1.32a14.134 14.134 0 0 1 14.98 6.78 19.888 19.888 0 0 0 3.61 4.55l7.64 7.19a14.222 14.222 0 0 0 6.02 3.37l.89.25a12.653 12.653 0 0 1 8.88 8.84l4.1 14.77a17.2 17.2 0 0 0 2.9 5.86l12.41 16.27a12.859 12.859 0 0 1 2.47 5.69l3.38 20.32a5.662 5.662 0 0 0 7.8 4.3 8.51 8.51 0 0 0 5.18-6.97 18.237 18.237 0 0 1 4.12-9.8l3.59-4.32a10.322 10.322 0 0 0 1.93-3.57l3.7-11.98a15.051 15.051 0 0 1 5.22-7.51l11.09-8.52a6.561 6.561 0 0 0 1-9.45l-7.32-8.61c-.38-.45-.75-.93-1.1-1.41l-5.76-8.02a19.126 19.126 0 0 0 -15.54-7.98l-11.43-6.86a13.869 13.869 0 0 0 -13.69-.33l-6.03 3.22a9.02 9.02 0 0 1 -11.89-3.13l-5.85-9.23a9.934 9.934 0 0 1 .16-10.87 11.594 11.594 0 0 1 11.06-5l8.86 1.12a10.2 10.2 0 0 0 1.35.09 10.676 10.676 0 0 0 9.21-5.27 11.07 11.07 0 0 1 10.94-5.37l3.84.49a10.558 10.558 0 0 0 9.72-4.04l3.38-4.38a14.26 14.26 0 0 0 .43-16.84l-12.5-18.02a99.185 99.185 0 0 1 59.72 12.5 36.812 36.812 0 0 0 5.52 14.8l-8.04 13.74a7.806 7.806 0 0 0 .91 9.01 10.843 10.843 0 0 0 3.06 2.42 10.71 10.71 0 0 0 3.72 1.17l1.38.17a9.85 9.85 0 0 1 8.22 6.92 9.373 9.373 0 0 1 .41 2.76 9.565 9.565 0 0 1 -3.23 7.17l-13.75 12.15a10.252 10.252 0 0 0 -3.47 7.69v3.23a8.569 8.569 0 0 0 3.92 7.2v.01a9.118 9.118 0 0 1 4.15 6.78l.33 3.22a7.7 7.7 0 0 0 7.66 6.94h8.05a14.3 14.3 0 0 0 13.1-8.56l.49-1.1a9.224 9.224 0 0 1 8.03-5.52l1.89-.08c.26-.01.51-.03.76-.06z" fill="#6fe3ff"/><path d="m359.96 95.34a14.355 14.355 0 1 1 -14.35 14.36 14.289 14.289 0 0 1 14.35-14.36z" fill="#6fe3ff"/><path d="m298.8 212.12a6.561 6.561 0 0 1 -1 9.45l-11.09 8.52a15.051 15.051 0 0 0 -5.22 7.51l-3.7 11.98a10.322 10.322 0 0 1 -1.93 3.57l-3.59 4.32a18.237 18.237 0 0 0 -4.12 9.8 8.51 8.51 0 0 1 -5.18 6.97 5.662 5.662 0 0 1 -7.8-4.3l-3.38-20.32a12.859 12.859 0 0 0 -2.47-5.69l-12.41-16.27a17.2 17.2 0 0 1 -2.9-5.86l-4.1-14.77a12.653 12.653 0 0 0 -8.88-8.84l-.89-.25a14.222 14.222 0 0 1 -6.02-3.37l-7.64-7.19a19.888 19.888 0 0 1 -3.61-4.55 14.134 14.134 0 0 0 -14.98-6.78l-6.68 1.32-.35-.09a99.044 99.044 0 0 1 85.78-75.6l12.5 18.02a14.26 14.26 0 0 1 -.43 16.84l-3.38 4.38a10.558 10.558 0 0 1 -9.72 4.04l-3.84-.49a11.07 11.07 0 0 0 -10.94 5.37 10.676 10.676 0 0 1 -9.21 5.27 10.2 10.2 0 0 1 -1.35-.09l-8.86-1.12a11.594 11.594 0 0 0 -11.06 5 9.934 9.934 0 0 0 -.16 10.87l5.85 9.23a9.02 9.02 0 0 0 11.89 3.13l6.03-3.22a13.869 13.869 0 0 1 13.69.33l11.43 6.86a19.126 19.126 0 0 1 15.54 7.98l5.76 8.02c.35.48.72.96 1.1 1.41z" fill="#e48e66"/><path d="m299.06 442.31v53.69l-64.32-31.89-64.32 31.89v-53.69-46.24h128.64z" fill="#f8ec7d"/><path d="m153.76 357.68v.01h-18.62a42.317 42.317 0 0 0 -42.28 40.57h-.03v-339.95a42.313 42.313 0 0 1 42.31-42.31h18.62z" fill="#6fe3ff"/><g fill="#63316d"><path d="m167.257 501.1a6 6 0 0 0 5.828.276l61.655-30.568 61.66 30.567a6 6 0 0 0 8.66-5.375v-47.69h114.11a6 6 0 0 0 6-6v-426.31a6 6 0 0 0 -6-6h-284.03a48.365 48.365 0 0 0 -48.31 48.31v339.95c0 .144 0 .287.015.428q-.015.656-.015 1.312a48.3 48.3 0 0 0 48.31 48.31h29.28v47.69a6 6 0 0 0 2.837 5.1zm125.8-14.771-55.655-27.594a6 6 0 0 0 -5.33 0l-55.652 27.593v-84.258h116.64zm120.113-134.639h-253.41v-329.69h253.41zm-314.34-293.38a36.352 36.352 0 0 1 36.31-36.31h12.62v329.69h-12.62a48.173 48.173 0 0 0 -36.31 16.367zm36.31 378a36.3 36.3 0 0 1 -36.31-36.31c0-.511.009-1.022.025-1.5a36.211 36.211 0 0 1 36.285-34.81h278.03v72.62h-108.11v-40.24a6 6 0 0 0 -6-6h-128.64a6 6 0 0 0 -6 6v40.24z"/><path d="m277.18 305.04a104.954 104.954 0 0 0 104.895-101.213c.05-1.181.075-2.406.075-3.747a104.007 104.007 0 0 0 -8.246-40.814l18.284-24.454a41.427 41.427 0 0 0 8.439-27.583c-1.411-21.638-19.085-38.589-40.237-38.589-20.245 0-37.286 15.515-39.952 35.788a104.968 104.968 0 1 0 -43.258 200.612zm64.65-38.156a92.965 92.965 0 0 1 -157.61-66.8 93.666 93.666 0 0 1 1.656-17.516l3.165-.626a8.139 8.139 0 0 1 8.639 3.9 25.9 25.9 0 0 0 4.688 5.91l7.639 7.188a20.217 20.217 0 0 0 8.51 4.778l.941.264a6.685 6.685 0 0 1 4.671 4.654l4.094 14.749a23.082 23.082 0 0 0 3.917 7.916l12.418 16.282a6.893 6.893 0 0 1 1.314 3.023l3.378 20.316a11.661 11.661 0 0 0 16.042 8.852 14.512 14.512 0 0 0 8.827-11.888 12.2 12.2 0 0 1 2.766-6.579l3.594-4.326a16.219 16.219 0 0 0 3.044-5.628l3.7-11.981a9.01 9.01 0 0 1 3.142-4.522l11.088-8.518a12.561 12.561 0 0 0 1.918-18.1l-7.308-8.6c-.289-.342-.569-.708-.81-1.038l-5.764-8.026a25.125 25.125 0 0 0 -18.642-10.411l-10.114-6.07a19.954 19.954 0 0 0 -19.6-.475l-6.043 3.226a3.031 3.031 0 0 1 -3.983-1.056l-5.846-9.223a3.958 3.958 0 0 1 -.612-2.115 3.885 3.885 0 0 1 .669-2.187 5.557 5.557 0 0 1 5.339-2.41l8.819 1.114a16.194 16.194 0 0 0 2.143.143 16.734 16.734 0 0 0 14.381-8.219 5.072 5.072 0 0 1 5.011-2.463l3.833.489a16.62 16.62 0 0 0 15.236-6.326l3.382-4.382a20.189 20.189 0 0 0 .608-23.923l-6.348-9.151a93.026 93.026 0 0 1 43.241 10.925 42.248 42.248 0 0 0 3.981 10.9l-6.315 10.791a13.81 13.81 0 0 0 1.614 15.945 16.751 16.751 0 0 0 10.551 5.584l1.377.171a3.866 3.866 0 0 1 3.225 2.732 3.354 3.354 0 0 1 .144.993 3.578 3.578 0 0 1 -1.2 2.674l-13.746 12.147a16.261 16.261 0 0 0 -5.5 12.189v3.23a14.5 14.5 0 0 0 6.333 12.02c.111.083.226.162.344.238a3.152 3.152 0 0 1 1.424 2.344l.329 3.2a13.651 13.651 0 0 0 13.63 12.35h8.05a20.291 20.291 0 0 0 18.58-12.118l.506-1.135a3.2 3.2 0 0 1 2.788-1.932l1.861-.08c.216-.008.422-.031.631-.048a92.38 92.38 0 0 1 -27.74 56.635zm23.363-95.978.2-.266a92.151 92.151 0 0 1 4.732 27.5l-1.259.128-.105.011c-.09.011-.181.018-.3.023l-1.91.081a15.119 15.119 0 0 0 -13.236 9.072l-.5 1.133a8.305 8.305 0 0 1 -7.605 4.969h-8.05a1.7 1.7 0 0 1 -1.691-1.552l-.327-3.19a15.022 15.022 0 0 0 -6.544-11.024c-.108-.08-.218-.157-.332-.23a2.581 2.581 0 0 1 -1.166-2.154v-3.23a4.261 4.261 0 0 1 1.443-3.194l13.754-12.153a15.586 15.586 0 0 0 5.253-11.663 15.321 15.321 0 0 0 -.668-4.5 15.8 15.8 0 0 0 -1.534-3.469l10.247 13.7a6 6 0 0 0 4.8 2.406 6 6 0 0 0 4.798-2.398zm-31.547-21.37-1.39-.172a4.7 4.7 0 0 1 -1.635-.515 4.786 4.786 0 0 1 -1.358-1.073 1.785 1.785 0 0 1 -.244-2.026l3.4-5.816 10.881 14.545a15.858 15.858 0 0 0 -9.654-4.943zm-1.519-41.529c.873-13.452 11.68-27.367 28.263-27.367s27.385 13.917 28.264 27.387a29.453 29.453 0 0 1 -6.069 19.59l-22.193 29.678-22.147-29.611c-.506-.7-.918-1.3-1.3-1.926a30.6 30.6 0 0 1 -4.636-12.38 26.7 26.7 0 0 1 -.182-5.371zm-68.345.079 10.429 15.036a8.232 8.232 0 0 1 -.251 9.753l-3.387 4.389a4.577 4.577 0 0 1 -4.2 1.744l-3.84-.489a17.056 17.056 0 0 0 -16.874 8.285 4.7 4.7 0 0 1 -4.035 2.306 4.286 4.286 0 0 1 -.6-.043l-8.856-1.119a17.5 17.5 0 0 0 -16.785 7.59 15.933 15.933 0 0 0 -.259 17.444l5.847 9.225a15.067 15.067 0 0 0 19.787 5.215l6.042-3.222a7.9 7.9 0 0 1 7.762.189l11.431 6.86a6 6 0 0 0 3.087.855 13.126 13.126 0 0 1 10.667 5.48l5.785 8.056q.7.954 1.377 1.76l7.319 8.609a.543.543 0 0 1 .13.425.532.532 0 0 1 -.213.382l-11.084 8.515a20.941 20.941 0 0 0 -7.3 10.5l-3.706 12a4.262 4.262 0 0 1 -.806 1.487l-3.588 4.319a24.151 24.151 0 0 0 -5.475 13.021 2.493 2.493 0 0 1 -.476 1.224 2.586 2.586 0 0 1 -.69.639l-3.31-19.9a18.926 18.926 0 0 0 -3.616-8.328l-12.4-16.263a11.144 11.144 0 0 1 -1.9-3.834l-4.1-14.762a18.707 18.707 0 0 0 -13.041-13.019l-.943-.265a8.239 8.239 0 0 1 -3.478-1.949l-7.65-7.2a13.919 13.919 0 0 1 -2.523-3.183 20.18 20.18 0 0 0 -18.8-9.971 92.964 92.964 0 0 1 74.523-61.761z"/><path d="m359.96 130.05a20.355 20.355 0 1 0 -20.35-20.35 20.373 20.373 0 0 0 20.35 20.35zm0-28.71a8.266 8.266 0 0 1 8.35 8.36 8.35 8.35 0 0 1 -16.7 0 8.266 8.266 0 0 1 8.35-8.36z"/></g></svg>