<svg height="512pt" viewBox="0 0 512 512" width="512pt" xmlns="http://www.w3.org/2000/svg"><path d="m494.328125 494.34375h-247.15625v-476.6875h247.15625c9.761719 0 17.671875 7.910156 17.671875 17.671875v441.34375c0 9.761719-7.910156 17.671875-17.671875 17.671875zm0 0" fill="#afb6bb"/><path d="m300.136719 52.964844h176.554687v194.207031h-176.554687zm0 0" fill="#fff"/><path d="m317.792969 326.621094h-17.65625c-4.871094 0-8.828125-3.945313-8.828125-8.828125 0-4.882813 3.957031-8.828125 8.828125-8.828125h17.65625c4.871093 0 8.828125 3.945312 8.828125 8.828125 0 4.882812-3.957032 8.828125-8.828125 8.828125zm0 0" fill="#dd352e"/><path d="m476.691406 326.621094h-123.589844c-4.871093 0-8.824218-3.945313-8.824218-8.828125 0-4.882813 3.953125-8.828125 8.824218-8.828125h123.589844c4.871094 0 8.824219 3.945312 8.824219 8.828125 0 4.882812-3.953125 8.828125-8.824219 8.828125zm0 0" fill="#366db6"/><path d="m476.691406 291.308594h-44.140625c-4.871093 0-8.828125-3.945313-8.828125-8.824219 0-4.882813 3.957032-8.828125 8.828125-8.828125h44.140625c4.871094 0 8.824219 3.945312 8.824219 8.828125 0 4.878906-3.953125 8.824219-8.824219 8.824219zm0 0" fill="#fc3952"/><path d="m397.242188 291.308594h-97.105469c-4.871094 0-8.828125-3.945313-8.828125-8.824219 0-4.882813 3.957031-8.828125 8.828125-8.828125h97.105469c4.871093 0 8.828124 3.945312 8.828124 8.828125 0 4.878906-3.957031 8.824219-8.828124 8.824219zm0 0" fill="#33636c"/><path d="m476.691406 388.414062h-176.554687v-35.3125h176.554687zm0 0" fill="#ebba16"/><path d="m335.449219 88.277344h35.308593v35.308594h-35.308593zm0 0" fill="#ebba16"/><path d="m388.40625 211.863281c-1.933594 0-3.886719-.628906-5.507812-1.933593l-44.140626-35.3125c-3.804687-3.054688-4.421874-8.605469-1.375-12.410157 3.042969-3.804687 8.597657-4.421875 12.410157-1.378906l44.136719 35.3125c3.804687 3.054687 4.425781 8.605469 1.378906 12.410156-1.75 2.171875-4.308594 3.3125-6.902344 3.3125zm0 0" fill="#61b872"/><path d="m370.757812 194.207031c-2.523437 0-5.039062-1.078125-6.789062-3.167969-3.125-3.753906-2.613281-9.324218 1.132812-12.4375l52.964844-44.140624c3.742188-3.105469 9.3125-2.621094 12.429688 1.128906 3.113281 3.753906 2.613281 9.324218-1.132813 12.441406l-52.964843 44.136719c-1.640626 1.367187-3.644532 2.039062-5.640626 2.039062zm0 0" fill="#61b872"/><path d="m300.136719 423.722656h35.3125v35.3125h-35.3125zm0 0" fill="#7383bf"/><path d="m441.378906 423.722656h35.3125v35.3125h-35.3125zm0 0" fill="#ed8a19"/><path d="m370.757812 423.722656h35.3125v35.3125h-35.3125zm0 0" fill="#dd352e"/><path d="m247.191406 512h-229.554687c-9.734375 0-17.636719-7.902344-17.636719-17.636719v-476.726562c0-9.734375 7.902344-17.636719 17.636719-17.636719h229.554687c9.734375 0 17.636719 7.902344 17.636719 17.636719v476.726562c0 9.734375-7.902344 17.636719-17.636719 17.636719zm0 0" fill="#e7eced"/><path d="m229.515625 370.757812h-35.308594c-4.871093 0-8.828125-3.945312-8.828125-8.828124 0-4.878907 3.957032-8.828126 8.828125-8.828126h35.308594c4.875 0 8.828125 3.949219 8.828125 8.828126 0 4.882812-3.953125 8.828124-8.828125 8.828124zm0 0" fill="#366db6"/><path d="m158.898438 370.757812h-123.589844c-4.871094 0-8.824219-3.945312-8.824219-8.828124 0-4.878907 3.953125-8.828126 8.824219-8.828126h123.589844c4.871093 0 8.824218 3.949219 8.824218 8.828126 0 4.882812-3.953125 8.828124-8.824218 8.828124zm0 0" fill="#ebba16"/><path d="m79.449219 406.070312h-44.140625c-4.871094 0-8.824219-3.949218-8.824219-8.828124 0-4.882813 3.953125-8.828126 8.824219-8.828126h44.140625c4.871093 0 8.828125 3.945313 8.828125 8.828126 0 4.878906-3.957032 8.828124-8.828125 8.828124zm0 0" fill="#61b872"/><path d="m229.515625 406.070312h-114.757813c-4.871093 0-8.828124-3.949218-8.828124-8.828124 0-4.882813 3.957031-8.828126 8.828124-8.828126h114.757813c4.875 0 8.828125 3.945313 8.828125 8.828126 0 4.878906-3.953125 8.828124-8.828125 8.828124zm0 0" fill="#7383bf"/><path d="m229.515625 441.378906h-35.308594c-4.871093 0-8.828125-3.945312-8.828125-8.828125 0-4.878906 3.957032-8.828125 8.828125-8.828125h35.308594c4.875 0 8.828125 3.949219 8.828125 8.828125 0 4.882813-3.953125 8.828125-8.828125 8.828125zm0 0" fill="#61b872"/><path d="m158.898438 441.378906h-123.589844c-4.871094 0-8.824219-3.945312-8.824219-8.828125 0-4.878906 3.953125-8.828125 8.824219-8.828125h123.589844c4.871093 0 8.824218 3.949219 8.824218 8.828125 0 4.882813-3.953125 8.828125-8.824218 8.828125zm0 0" fill="#ed8a19"/><path d="m79.449219 476.691406h-44.140625c-4.871094 0-8.824219-3.949218-8.824219-8.828125 0-4.882812 3.953125-8.828125 8.824219-8.828125h44.140625c4.871093 0 8.828125 3.945313 8.828125 8.828125 0 4.878907-3.957032 8.828125-8.828125 8.828125zm0 0" fill="#33636c"/><path d="m229.515625 476.691406h-114.757813c-4.871093 0-8.828124-3.949218-8.828124-8.828125 0-4.882812 3.957031-8.828125 8.828124-8.828125h114.757813c4.875 0 8.828125 3.945313 8.828125 8.828125 0 4.878907-3.953125 8.828125-8.828125 8.828125zm0 0" fill="#ebba16"/><path d="m132.414062 247.171875c-58.414062 0-105.929687-47.519531-105.929687-105.929687 0-58.414063 47.515625-105.933594 105.929687-105.933594 58.410157 0 105.929688 47.519531 105.929688 105.933594 0 58.410156-47.519531 105.929687-105.929688 105.929687zm0-194.207031c-48.675781 0-88.277343 39.601562-88.277343 88.277344 0 48.675781 39.601562 88.273437 88.277343 88.273437 48.675782 0 88.277344-39.597656 88.277344-88.273437 0-48.675782-39.601562-88.277344-88.277344-88.277344zm0 0" fill="#7383bf"/><path d="m35.308594 291.308594h194.207031v35.3125h-194.207031zm0 0" fill="#dd352e"/><path d="m132.414062 247.171875c-27.867187 0-35.3125-66.585937-35.3125-105.929687s7.445313-105.933594 35.3125-105.933594c27.867188 0 35.308594 66.589844 35.308594 105.933594s-7.441406 105.929687-35.308594 105.929687zm-.371093-194.257813c-5.542969 2.460938-17.285157 34.980469-17.285157 88.328126 0 53.34375 11.742188 85.863281 18.027344 88.328124 5.542969-2.464843 17.285156-34.984374 17.285156-88.328124 0-53.347657-11.742187-85.867188-18.027343-88.328126zm0 0" fill="#7383bf"/><path d="m229.515625 150.070312h-194.207031c-4.871094 0-8.824219-3.949218-8.824219-8.828124 0-4.882813 3.953125-8.828126 8.824219-8.828126h194.207031c4.875 0 8.828125 3.945313 8.828125 8.828126 0 4.878906-3.953125 8.828124-8.828125 8.828124zm0 0" fill="#7383bf"/><g fill="#61b872"><path d="m476.691406 171.632812-47.511718-37.328124c-3.839844-3.039063-9.394532-2.359376-12.394532 1.480468-3.007812 3.839844-2.347656 9.382813 1.484375 12.394532l58.421875 45.902343zm0 0"/><path d="m338.855469 160.757812-38.71875 30.113282v22.359375l49.558593-38.542969c3.847657-2.992188 4.539063-8.535156 1.546876-12.382812-2.992188-3.847657-8.539063-4.566407-12.386719-1.546876zm0 0"/></g></svg>